REM DIRINDEX 1\3,1\2\4,1\2\5,1\2\6
REM DIRNAME folder01,folder02,folder03,folder04,folder05,folder06
TITLE ""
FILE "012.mp3" MP3
  TRACK 01 AUDIO
    TITLE "4:cjc137_0465"
    INDEX 01 00:00:00
  TRACK 02 AUDIO
    TITLE "0:"
    INDEX 01 00:01:15
  TRACK 03 AUDIO
    TITLE "6:cjc137_0466"
    INDEX 01 00:01:28
  TRACK 04 AUDIO
    TITLE "0:"
    INDEX 01 00:02:24
  TRACK 05 AUDIO
    TITLE "5:cjc137_0467"
    INDEX 01 00:02:34
  TRACK 06 AUDIO
    TITLE "0:"
    INDEX 01 00:03:51
  TRACK 07 AUDIO
    TITLE "4:cjc137_0468"
    INDEX 01 00:04:60
  TRACK 08 AUDIO
    TITLE "0:"
    INDEX 01 00:05:48
  TRACK 09 AUDIO
    TITLE "6:cjc137_0469"
    INDEX 01 00:05:61
  TRACK 10 AUDIO
    TITLE "0:"
    INDEX 01 00:06:59
  TRACK 11 AUDIO
    TITLE "5:cjc137_0470"
    INDEX 01 00:06:73
  TRACK 12 AUDIO
    TITLE "0:"
    INDEX 01 00:07:60
  TRACK 13 AUDIO
    TITLE "4:cjc137_0471"
    INDEX 01 00:08:70
  TRACK 14 AUDIO
    TITLE "0:"
    INDEX 01 00:10:06
  TRACK 15 AUDIO
    TITLE "6:cjc137_0472"
    INDEX 01 00:10:18
  TRACK 16 AUDIO
    TITLE "0:"
    INDEX 01 00:11:15
  TRACK 17 AUDIO
    TITLE "5:cjc137_0473"
    INDEX 01 00:11:27
  TRACK 18 AUDIO
    TITLE "0:"
    INDEX 01 00:12:36
  TRACK 19 AUDIO
    TITLE "4:cjc137_0474"
    INDEX 01 00:13:45
  TRACK 20 AUDIO
    TITLE "0:"
    INDEX 01 00:14:56
  TRACK 21 AUDIO
    TITLE "6:cjc137_0475"
    INDEX 01 00:14:66
  TRACK 22 AUDIO
    TITLE "0:"
    INDEX 01 00:15:66
  TRACK 23 AUDIO
    TITLE "5:cjc137_0476"
    INDEX 01 00:16:02
  TRACK 24 AUDIO
    TITLE "0:"
    INDEX 01 00:17:12
  TRACK 25 AUDIO
    TITLE "4:cjc137_0477"
    INDEX 01 00:18:19
  TRACK 26 AUDIO
    TITLE "0:"
    INDEX 01 00:19:28
  TRACK 27 AUDIO
    TITLE "6:cjc137_0478"
    INDEX 01 00:19:42
  TRACK 28 AUDIO
    TITLE "0:"
    INDEX 01 00:20:65
  TRACK 29 AUDIO
    TITLE "5:cjc137_0479"
    INDEX 01 00:21:04
  TRACK 30 AUDIO
    TITLE "0:"
    INDEX 01 00:22:11
  TRACK 31 AUDIO
    TITLE "4:cjc137_0480"
    INDEX 01 00:23:20
  TRACK 32 AUDIO
    TITLE "0:"
    INDEX 01 00:24:20
  TRACK 33 AUDIO
    TITLE "6:cjc137_0481"
    INDEX 01 00:24:33
  TRACK 34 AUDIO
    TITLE "0:"
    INDEX 01 00:25:29
  TRACK 35 AUDIO
    TITLE "5:cjc137_0482"
    INDEX 01 00:25:43
  TRACK 36 AUDIO
    TITLE "0:"
    INDEX 01 00:26:42
  TRACK 37 AUDIO
    TITLE "4:cjc137_0483"
    INDEX 01 00:27:53
  TRACK 38 AUDIO
    TITLE "0:"
    INDEX 01 00:28:53
  TRACK 39 AUDIO
    TITLE "6:cjc137_0484"
    INDEX 01 00:28:66
  TRACK 40 AUDIO
    TITLE "0:"
    INDEX 01 00:29:66
  TRACK 41 AUDIO
    TITLE "5:cjc137_0485"
    INDEX 01 00:30:05
  TRACK 42 AUDIO
    TITLE "0:"
    INDEX 01 00:31:06
  TRACK 43 AUDIO
    TITLE "4:cjc137_0486"
    INDEX 01 00:32:13
  TRACK 44 AUDIO
    TITLE "0:"
    INDEX 01 00:33:21
  TRACK 45 AUDIO
    TITLE "6:cjc137_0487"
    INDEX 01 00:33:30
  TRACK 46 AUDIO
    TITLE "0:"
    INDEX 01 00:34:12
  TRACK 47 AUDIO
    TITLE "5:cjc137_0488"
    INDEX 01 00:34:24
  TRACK 48 AUDIO
    TITLE "0:"
    INDEX 01 00:35:31
  TRACK 49 AUDIO
    TITLE "4:cjc137_0489"
    INDEX 01 00:36:38
  TRACK 50 AUDIO
    TITLE "0:"
    INDEX 01 00:37:63
  TRACK 51 AUDIO
    TITLE "6:cjc137_0490"
    INDEX 01 00:37:73
  TRACK 52 AUDIO
    TITLE "0:"
    INDEX 01 00:39:21
  TRACK 53 AUDIO
    TITLE "5:cjc137_0491"
    INDEX 01 00:39:31
  TRACK 54 AUDIO
    TITLE "0:"
    INDEX 01 00:40:54
  TRACK 55 AUDIO
    TITLE "4:cjc137_0492"
    INDEX 01 00:41:63
  TRACK 56 AUDIO
    TITLE "0:"
    INDEX 01 00:42:59
  TRACK 57 AUDIO
    TITLE "6:cjc137_0493"
    INDEX 01 00:42:70
  TRACK 58 AUDIO
    TITLE "0:"
    INDEX 01 00:43:60
  TRACK 59 AUDIO
    TITLE "5:cjc137_0494"
    INDEX 01 00:43:70
  TRACK 60 AUDIO
    TITLE "0:"
    INDEX 01 00:44:67
  TRACK 61 AUDIO
    TITLE "4:cjc137_0495"
    INDEX 01 00:45:73
  TRACK 62 AUDIO
    TITLE "0:"
    INDEX 01 00:47:03
  TRACK 63 AUDIO
    TITLE "6:cjc137_0496"
    INDEX 01 00:47:15
  TRACK 64 AUDIO
    TITLE "0:"
    INDEX 01 00:48:04
  TRACK 65 AUDIO
    TITLE "5:cjc137_0497"
    INDEX 01 00:48:14
  TRACK 66 AUDIO
    TITLE "0:"
    INDEX 01 00:49:18
  TRACK 67 AUDIO
    TITLE "4:cjc137_0498"
    INDEX 01 00:50:25
  TRACK 68 AUDIO
    TITLE "0:"
    INDEX 01 00:51:30
  TRACK 69 AUDIO
    TITLE "6:cjc137_0499"
    INDEX 01 00:51:42
  TRACK 70 AUDIO
    TITLE "0:"
    INDEX 01 00:52:47
  TRACK 71 AUDIO
    TITLE "5:cjc137_0500"
    INDEX 01 00:52:55
  TRACK 72 AUDIO
    TITLE "0:"
    INDEX 01 00:53:60
  TRACK 73 AUDIO
    TITLE "4:cjc137_0501"
    INDEX 01 00:54:68
  TRACK 74 AUDIO
    TITLE "0:"
    INDEX 01 00:55:69
  TRACK 75 AUDIO
    TITLE "6:cjc137_0502"
    INDEX 01 00:56:06
  TRACK 76 AUDIO
    TITLE "0:"
    INDEX 01 00:57:07
  TRACK 77 AUDIO
    TITLE "5:cjc137_0503"
    INDEX 01 00:57:19
  TRACK 78 AUDIO
    TITLE "0:"
    INDEX 01 00:58:20
  TRACK 79 AUDIO
    TITLE "4:cjc137_0504"
    INDEX 01 00:59:30
  TRACK 80 AUDIO
    TITLE "0:"
    INDEX 01 01:00:29
  TRACK 81 AUDIO
    TITLE "6:cjc137_0505"
    INDEX 01 01:00:43
  TRACK 82 AUDIO
    TITLE "0:"
    INDEX 01 01:01:46
  TRACK 83 AUDIO
    TITLE "5:cjc137_0506"
    INDEX 01 01:01:58
  TRACK 84 AUDIO
    TITLE "0:"
    INDEX 01 01:02:57
